<svg width="300" height="300" viewBox="0 0 300 300" fill="none" xmlns="http://www.w3.org/2000/svg">
<rect width="300" height="300" fill="white"/>
<path d="M160.726 179.819C163.627 178.852 165.561 180.785 163.627 186.587C161.693 192.389 161.832 209.939 173.296 214.628C180.065 216.562 181.032 215.595 188.767 214.628C192.169 214.203 187.8 209.794 190.701 205.926C193.602 203.025 196.213 205.404 198.436 204.959C203.271 203.992 201.902 200.689 198.436 197.223C185.805 184.592 183.621 169.973 193.602 153.711C203.37 135.873 201.662 114.876 192.673 96.8978C186.985 85.523 191.629 73.7573 200.37 65.0163C208.353 57.0338 219.043 52.2147 225.511 42.5132C228.709 37.7157 226.383 29.2246 222.61 25.1083C219.709 21.944 221.643 22.2075 219.709 18.6033C218.325 16.0239 212.704 16.087 211.007 17.3728C206.02 21.15 206.738 24.2712 198.436 21.5041C188.018 18.0312 193.02 12.3193 181.032 14.472C166.349 17.1085 152.788 23.6865 150.09 39.876C149.316 44.5173 148.156 45.6776 146.222 47.6115C138.293 53.9546 119.737 97.6287 140.42 97.6287C148.156 97.6287 147.189 100.53 144.288 104.397C140.974 108.816 133.652 116.001 127.85 123.736C119.972 132.685 115.974 136.695 109.478 142.108C98.7296 151.065 87.3876 161.37 85.3046 175.951C84.8722 178.978 84.9041 185.386 86.2716 189.488C88.2054 195.29 89.1724 198.19 86.2715 200.124C83.3707 202.058 79.4038 197.992 77.5691 194.323C70.7411 180.667 83.3707 172.083 82.4038 165.314C81.2354 157.136 67.2966 168.64 63.065 177.885C57.7039 189.598 63.2054 204.062 74.6683 209.794C82.1475 213.533 83.9307 207.86 90.1393 207.86C93.7802 207.86 93.0401 209.794 99.8087 213.661C106.577 217.529 122.048 219.463 127.85 219.463C133.652 219.463 149.123 218.496 153.957 216.562C158.792 214.628 159.282 213.157 159.759 211.728C160.726 208.827 160.726 204.959 156.858 203.025C151.056 200.124 147.189 203.025 144.288 199.157C141.387 195.29 144.288 192.389 147.189 189.488C149.654 187.023 157.825 180.785 160.726 179.819Z" fill="#F47C2A" stroke="#F47C2A"/>
<path d="M204.238 145.976C204.85 144.141 204.238 109.232 204.238 98.5957C204.238 93.183 204.238 69.5875 202.304 58.9512L207.139 57.0173V111.166C207.139 111.166 207.139 142.108 208.106 145.976C209.073 149.843 209.073 147.91 209.073 150.81C209.073 153.711 207.608 154.678 206.172 154.678C203.271 154.678 202.304 151.816 202.304 150.81C202.304 147.91 203.271 148.876 204.238 145.976Z" fill="#F47C2A" stroke="#F47C2A"/>
<path d="M218.742 65.7198C218.742 56.4372 217.453 52.8273 216.808 52.1826L220.676 46.381C222.594 53.0943 223.577 55.0834 223.577 65.7198L220.676 108.265L218.742 123.736C218.742 127.604 220.829 122.516 223.577 126.637C225.511 129.538 223.577 130.505 221.643 131.472C214.694 134.946 219.651 144.439 222.61 148.876C225.951 153.889 248.735 187.554 222.61 187.554C216.808 187.554 212.941 180.785 211.974 172.083C211.514 167.943 213.263 133.728 214.874 116.968C216.164 103.753 218.742 75.0024 218.742 65.7198Z" fill="#F47C2A" stroke="#F47C2A"/>
<path d="M227.895 181.752C238.817 178.112 220.783 154.999 217.775 149.843C217.031 156.543 212.301 186.95 227.895 181.752Z" fill="white" stroke="white"/>
<path d="M232 136.5C221.2 140.9 214.333 141.667 214 141.5V141L215 138C215.333 138.167 218.7 138.4 229.5 134C240.3 129.6 238 130.5 242 128V131.5C240 132.5 242.8 132.1 232 136.5Z" fill="white" stroke="white"/>
<path d="M78.9894 249.406H85.9354C86.5794 249.406 87.2464 249.483 87.9364 249.636C88.6264 249.789 89.2551 250.073 89.8224 250.487C90.4051 250.886 90.8804 251.438 91.2484 252.143C91.6164 252.848 91.7927 253.753 91.7774 254.857L91.7544 260.4C91.7544 261.412 91.5551 262.286 91.1564 263.022C90.7731 263.743 90.2824 264.333 89.6844 264.793C89.0864 265.253 88.4194 265.59 87.6834 265.805C86.9627 266.035 86.2497 266.15 85.5444 266.15H78.9894V249.406ZM88.8564 255.708C88.8564 254.665 88.5957 253.906 88.0744 253.431C87.5684 252.94 86.6791 252.695 85.4064 252.695H82.6924V262.516H85.6134C86.0274 262.516 86.4261 262.478 86.8094 262.401C87.2081 262.309 87.5531 262.163 87.8444 261.964C88.1511 261.765 88.3964 261.496 88.5804 261.159C88.7644 260.822 88.8564 260.392 88.8564 259.871V255.708ZM94.2308 253.132V250.418H97.0138V253.132H94.2308ZM94.2308 266.15V255.225H97.0138V266.15H94.2308ZM107.522 266.15V260.009C107.522 259.779 107.476 259.549 107.384 259.319C107.307 259.089 107.192 258.89 107.039 258.721C106.886 258.552 106.709 258.414 106.51 258.307C106.326 258.2 106.134 258.146 105.935 258.146H104.371C104.202 258.146 104.026 258.184 103.842 258.261C103.673 258.338 103.512 258.445 103.359 258.583C103.206 258.721 103.075 258.882 102.968 259.066C102.876 259.25 102.83 259.442 102.83 259.641V266.15H99.4491V254.949H102.83V255.869C103.045 255.746 103.298 255.647 103.589 255.57C103.88 255.478 104.156 255.432 104.417 255.432H106.096C106.617 255.432 107.108 255.524 107.568 255.708C108.028 255.892 108.427 256.153 108.764 256.49C109.101 256.827 109.37 257.249 109.569 257.755C109.768 258.246 109.868 258.798 109.868 259.411V266.15H107.522ZM120.594 255.179V267.185C120.594 267.783 120.471 268.281 120.226 268.68C119.996 269.079 119.704 269.401 119.352 269.646C119.014 269.907 118.639 270.091 118.225 270.198C117.826 270.305 117.466 270.359 117.144 270.359H114.775C114.453 270.359 114.115 270.298 113.763 270.175C113.41 270.052 113.088 269.861 112.797 269.6C112.521 269.339 112.283 269.01 112.084 268.611C111.9 268.212 111.808 267.745 111.808 267.208H114.453C114.468 267.361 114.491 267.515 114.522 267.668C114.552 267.821 114.606 267.959 114.683 268.082C114.775 268.205 114.89 268.304 115.028 268.381C115.166 268.458 115.342 268.496 115.557 268.496H116.546C116.898 268.496 117.182 268.381 117.397 268.151C117.627 267.936 117.742 267.699 117.742 267.438V265.437C117.604 265.59 117.381 265.705 117.075 265.782C116.768 265.874 116.515 265.92 116.316 265.92H114.568C114.123 265.92 113.709 265.851 113.326 265.713C112.958 265.575 112.628 265.376 112.337 265.115C112.045 264.87 111.815 264.571 111.647 264.218C111.493 263.865 111.417 263.474 111.417 263.045V259.181C111.417 258.736 111.501 258.322 111.67 257.939C111.854 257.54 112.091 257.203 112.383 256.927C112.689 256.636 113.042 256.406 113.441 256.237C113.839 256.068 114.269 255.984 114.729 255.984H116.155C116.676 255.984 117.205 256.122 117.742 256.398V255.179H120.594ZM116.224 264.172C116.576 264.172 116.891 264.065 117.167 263.85C117.443 263.635 117.581 263.237 117.581 262.654V259.365C117.581 258.874 117.404 258.522 117.052 258.307C116.714 258.077 116.362 257.962 115.994 257.962H115.511C115.051 257.962 114.683 258.1 114.407 258.376C114.131 258.637 113.993 259.012 113.993 259.503V262.769C113.993 263.091 114.092 263.405 114.292 263.712C114.491 264.019 114.821 264.172 115.281 264.172H116.224ZM122.317 249.406H129.263C129.907 249.406 130.574 249.483 131.264 249.636C131.954 249.789 132.582 250.073 133.15 250.487C133.732 250.886 134.208 251.438 134.576 252.143C134.944 252.848 135.12 253.753 135.105 254.857L135.082 260.4C135.082 261.412 134.882 262.286 134.484 263.022C134.1 263.743 133.61 264.333 133.012 264.793C132.414 265.253 131.747 265.59 131.011 265.805C130.29 266.035 129.577 266.15 128.872 266.15H122.317V249.406ZM132.184 255.708C132.184 254.665 131.923 253.906 131.402 253.431C130.896 252.94 130.006 252.695 128.734 252.695H126.02V262.516H128.941C129.355 262.516 129.753 262.478 130.137 262.401C130.535 262.309 130.88 262.163 131.172 261.964C131.478 261.765 131.724 261.496 131.908 261.159C132.092 260.822 132.184 260.392 132.184 259.871V255.708ZM140.433 266.15C139.942 266.15 139.467 266.081 139.007 265.943C138.562 265.805 138.171 265.59 137.834 265.299C137.497 265.023 137.228 264.67 137.029 264.241C136.83 263.796 136.73 263.275 136.73 262.677V258.583C136.73 258.108 136.837 257.663 137.052 257.249C137.282 256.835 137.581 256.475 137.949 256.168C138.332 255.861 138.777 255.624 139.283 255.455C139.789 255.286 140.326 255.202 140.893 255.202H142.319C142.963 255.202 143.546 255.294 144.067 255.478C144.604 255.662 145.064 255.907 145.447 256.214C145.83 256.521 146.122 256.889 146.321 257.318C146.536 257.747 146.643 258.2 146.643 258.675V262.907C146.643 263.382 146.559 263.819 146.39 264.218C146.221 264.617 145.976 264.954 145.654 265.23C145.332 265.521 144.949 265.744 144.504 265.897C144.059 266.066 143.561 266.15 143.009 266.15H140.433ZM142.204 264.057C142.465 264.057 142.687 264.011 142.871 263.919C143.07 263.812 143.231 263.689 143.354 263.551C143.492 263.398 143.592 263.237 143.653 263.068C143.714 262.884 143.745 262.708 143.745 262.539V259.273C143.745 258.905 143.592 258.552 143.285 258.215C142.994 257.862 142.58 257.686 142.043 257.686H141.399C141.184 257.686 140.97 257.717 140.755 257.778C140.556 257.839 140.364 257.939 140.18 258.077C140.011 258.2 139.873 258.361 139.766 258.56C139.659 258.759 139.605 259.005 139.605 259.296V262.424C139.605 262.547 139.62 262.708 139.651 262.907C139.697 263.091 139.774 263.267 139.881 263.436C140.004 263.605 140.165 263.75 140.364 263.873C140.579 263.996 140.847 264.057 141.169 264.057H142.204ZM156.33 266.15V260.009C156.33 259.779 156.284 259.549 156.192 259.319C156.115 259.089 156 258.89 155.847 258.721C155.693 258.552 155.517 258.414 155.318 258.307C155.134 258.2 154.942 258.146 154.743 258.146H153.179C153.01 258.146 152.834 258.184 152.65 258.261C152.481 258.338 152.32 258.445 152.167 258.583C152.013 258.721 151.883 258.882 151.776 259.066C151.684 259.25 151.638 259.442 151.638 259.641V266.15H148.257V254.949H151.638V255.869C151.852 255.746 152.105 255.647 152.397 255.57C152.688 255.478 152.964 255.432 153.225 255.432H154.904C155.425 255.432 155.916 255.524 156.376 255.708C156.836 255.892 157.234 256.153 157.572 256.49C157.909 256.827 158.177 257.249 158.377 257.755C158.576 258.246 158.676 258.798 158.676 259.411V266.15H156.33ZM169.401 255.179V267.185C169.401 267.783 169.278 268.281 169.033 268.68C168.803 269.079 168.512 269.401 168.159 269.646C167.822 269.907 167.446 270.091 167.032 270.198C166.633 270.305 166.273 270.359 165.951 270.359H163.582C163.26 270.359 162.923 270.298 162.57 270.175C162.217 270.052 161.895 269.861 161.604 269.6C161.328 269.339 161.09 269.01 160.891 268.611C160.707 268.212 160.615 267.745 160.615 267.208H163.26C163.275 267.361 163.298 267.515 163.329 267.668C163.36 267.821 163.413 267.959 163.49 268.082C163.582 268.205 163.697 268.304 163.835 268.381C163.973 268.458 164.149 268.496 164.364 268.496H165.353C165.706 268.496 165.989 268.381 166.204 268.151C166.434 267.936 166.549 267.699 166.549 267.438V265.437C166.411 265.59 166.189 265.705 165.882 265.782C165.575 265.874 165.322 265.92 165.123 265.92H163.375C162.93 265.92 162.516 265.851 162.133 265.713C161.765 265.575 161.435 265.376 161.144 265.115C160.853 264.87 160.623 264.571 160.454 264.218C160.301 263.865 160.224 263.474 160.224 263.045V259.181C160.224 258.736 160.308 258.322 160.477 257.939C160.661 257.54 160.899 257.203 161.19 256.927C161.497 256.636 161.849 256.406 162.248 256.237C162.647 256.068 163.076 255.984 163.536 255.984H164.962C165.483 255.984 166.012 256.122 166.549 256.398V255.179H169.401ZM165.031 264.172C165.384 264.172 165.698 264.065 165.974 263.85C166.25 263.635 166.388 263.237 166.388 262.654V259.365C166.388 258.874 166.212 258.522 165.859 258.307C165.522 258.077 165.169 257.962 164.801 257.962H164.318C163.858 257.962 163.49 258.1 163.214 258.376C162.938 258.637 162.8 259.012 162.8 259.503V262.769C162.8 263.091 162.9 263.405 163.099 263.712C163.298 264.019 163.628 264.172 164.088 264.172H165.031ZM171.124 249.406H178.07C178.714 249.406 179.381 249.483 180.071 249.636C180.761 249.789 181.39 250.073 181.957 250.487C182.54 250.886 183.015 251.438 183.383 252.143C183.751 252.848 183.927 253.753 183.912 254.857L183.889 260.4C183.889 261.412 183.69 262.286 183.291 263.022C182.908 263.743 182.417 264.333 181.819 264.793C181.221 265.253 180.554 265.59 179.818 265.805C179.097 266.035 178.384 266.15 177.679 266.15H171.124V249.406ZM180.991 255.708C180.991 254.665 180.73 253.906 180.209 253.431C179.703 252.94 178.814 252.695 177.541 252.695H174.827V262.516H177.748C178.162 262.516 178.561 262.478 178.944 262.401C179.343 262.309 179.688 262.163 179.979 261.964C180.286 261.765 180.531 261.496 180.715 261.159C180.899 260.822 180.991 260.392 180.991 259.871V255.708ZM194.117 266.15H190.713C190.207 266.15 189.655 266.073 189.057 265.92C188.474 265.767 187.93 265.506 187.424 265.138C186.918 264.785 186.496 264.318 186.159 263.735C185.837 263.152 185.676 262.432 185.676 261.573V254.374C185.676 253.623 185.821 252.94 186.113 252.327C186.404 251.714 186.795 251.192 187.286 250.763C187.792 250.318 188.374 249.981 189.034 249.751C189.693 249.506 190.391 249.383 191.127 249.383H193.473C194.224 249.383 194.922 249.506 195.566 249.751C196.21 249.981 196.762 250.318 197.222 250.763C197.697 251.192 198.065 251.714 198.326 252.327C198.586 252.925 198.717 253.6 198.717 254.351V261.642C198.717 262.317 198.571 262.938 198.28 263.505C198.004 264.057 197.636 264.532 197.176 264.931C196.731 265.314 196.233 265.613 195.681 265.828C195.144 266.043 194.623 266.15 194.117 266.15ZM192.875 263.39C193.611 263.39 194.201 263.198 194.646 262.815C195.09 262.416 195.313 261.849 195.313 261.113V254.604C195.313 254.313 195.259 254.037 195.152 253.776C195.06 253.515 194.914 253.285 194.715 253.086C194.515 252.887 194.262 252.733 193.956 252.626C193.664 252.503 193.312 252.442 192.898 252.442H191.61C191.196 252.442 190.828 252.503 190.506 252.626C190.199 252.749 189.938 252.91 189.724 253.109C189.509 253.308 189.348 253.538 189.241 253.799C189.133 254.06 189.08 254.336 189.08 254.627V261.113C189.08 261.742 189.256 262.278 189.609 262.723C189.961 263.168 190.567 263.39 191.426 263.39H192.875ZM213.449 257.249V260.975C213.449 262.631 213.096 263.888 212.391 264.747C211.685 265.59 210.612 266.073 209.171 266.196C208.619 266.257 208.059 266.28 207.492 266.265C206.94 266.25 206.311 266.227 205.606 266.196C204.977 266.181 204.356 266.066 203.743 265.851C203.129 265.652 202.577 265.345 202.087 264.931C201.611 264.517 201.22 263.996 200.914 263.367C200.607 262.723 200.454 261.949 200.454 261.044V254.673C200.454 253.937 200.584 253.247 200.845 252.603C201.105 251.959 201.481 251.407 201.972 250.947C202.478 250.472 203.083 250.096 203.789 249.82C204.494 249.544 205.299 249.406 206.204 249.406H207.837C208.588 249.406 209.255 249.498 209.838 249.682C210.436 249.866 210.957 250.127 211.402 250.464C211.846 250.801 212.214 251.2 212.506 251.66C212.812 252.105 213.058 252.603 213.242 253.155L209.976 254.144C209.884 253.945 209.784 253.753 209.677 253.569C209.569 253.385 209.431 253.232 209.263 253.109C209.109 252.971 208.918 252.864 208.688 252.787C208.473 252.71 208.197 252.672 207.86 252.672H206.457C205.629 252.672 205 252.894 204.571 253.339C204.157 253.784 203.95 254.313 203.95 254.926V260.699C203.95 261.573 204.149 262.232 204.548 262.677C204.946 263.106 205.514 263.321 206.25 263.321H207.814C208.35 263.321 208.772 263.244 209.079 263.091C209.401 262.938 209.638 262.723 209.792 262.447C209.96 262.171 210.068 261.849 210.114 261.481C210.16 261.098 210.183 260.684 210.183 260.239L210.16 259.204H207.446V257.249H213.449ZM216.391 249.383H219.818V262.217H216.391V249.383ZM219.68 264.287V267.07H216.575V264.287H219.68Z" fill="#F47C2A"/>
</svg>
